<svg xmlns="http://www.w3.org/2000/svg"   viewBox="0 0 256 256" version="1.1">
	<path d="M 32.583 20.865 C 31.875 22.012, 35.524 27.305, 50.256 46.500 C 61.896 61.665, 62.731 62.516, 66.268 62.810 C 68.321 62.981, 70 63.596, 70 64.176 C 70 66.427, 62.779 75, 60.883 75 C 58.914 75, 58.605 74.523, 57.620 69.973 C 57.140 67.751, 55.112 66.687, 40.787 61.140 C 9.707 49.106, 10.068 49.215, 8.446 51.418 C 7.354 52.901, 7.300 53.657, 8.208 54.750 C 8.853 55.528, 18.703 63.765, 30.097 73.055 C 47.725 87.429, 51.963 90.403, 58.534 93.013 C 70.146 97.626, 71.305 98.398, 76.063 104.690 C 88.284 120.848, 88.731 122.135, 91.446 148.937 C 92.258 156.947, 93.633 165.865, 94.501 168.756 C 99.529 185.484, 109.758 202.913, 121.130 214.128 C 128.984 221.874, 140.323 230.690, 146.592 233.925 C 150.250 235.813, 151.021 235.895, 153.873 234.696 C 157.940 232.985, 161.217 227.080, 160.805 222.205 C 160.539 219.062, 159.614 217.930, 153.500 213.257 C 143.134 205.334, 136.485 198.454, 130.539 189.500 C 121.417 175.762, 117.281 164.355, 114.523 145.324 C 113.632 139.177, 112.475 132.655, 111.951 130.831 C 111.428 129.006, 111 126.653, 111 125.602 C 111 123.765, 111.077 123.760, 112.963 125.466 C 114.847 127.171, 118 127.001, 118 125.195 C 118 124.718, 115.843 122.590, 113.207 120.466 C 109.116 117.170, 98.749 103.700, 97.805 100.453 C 97.637 99.877, 98.709 97.964, 100.187 96.201 L 102.873 92.997 110.187 95.637 C 117.005 98.098, 118.245 98.233, 128.500 97.631 C 134.550 97.275, 143.775 96.316, 149 95.499 C 176.970 91.126, 196.644 95.711, 226.587 113.578 C 236.949 119.761, 241.180 120.470, 245.506 116.748 C 249.320 113.468, 249.992 107.236, 246.842 104.363 C 242.709 100.593, 222.787 87.398, 213.500 82.280 C 199.005 74.293, 191.809 72.835, 167.044 72.867 C 155.645 72.881, 139.816 73.379, 131.868 73.973 C 117.838 75.020, 117.132 74.978, 107.644 72.512 C 92.311 68.528, 92.069 68.370, 84.022 57.100 C 80.056 51.545, 76.410 47, 75.919 47 C 75.428 47, 66.365 40.925, 55.779 33.500 C 37.712 20.827, 33.893 18.747, 32.583 20.865 M 118.661 103.440 C 117.839 105.583, 121.583 107, 128.065 107 C 136.459 107, 133.582 103.960, 123.801 102.493 C 120.142 101.944, 119.166 102.124, 118.661 103.440 M 114.178 109.687 C 114.623 111.994, 128 115.544, 128 113.354 C 128 111.689, 119.968 108, 116.344 108 C 114.546 108, 113.944 108.469, 114.178 109.687 M 110 113.766 C 110 114.898, 120.536 121, 122.490 121 C 125.406 121, 123.541 118.598, 118.432 115.773 C 113.598 113.101, 110 112.245, 110 113.766" stroke="none" fill-rule="evenodd"/>
</svg>