<svg xmlns="http://www.w3.org/2000/svg"   viewBox="0 0 256 256" version="1.1">
	<path d="M 68 20.469 C 60.759 22.545, 58.164 23.783, 53.341 27.466 C 43.660 34.858, 37.936 46.035, 36.024 61.278 C 34.701 71.835, 34.711 124.817, 36.040 136.500 C 37.471 149.093, 40.626 158.293, 45.353 163.664 C 50.213 169.185, 53.685 171, 59.385 171 C 61.852 171, 65.024 171.439, 66.435 171.975 L 69 172.950 69 203.023 L 69 233.095 71.646 235.548 L 74.292 238 140.557 238 L 206.822 238 209.411 234.923 L 212 231.847 212 185.923 L 212 140 214.566 140 C 215.977 140, 218.002 139.534, 219.066 138.965 C 220.900 137.983, 221 136.619, 221 112.572 C 221 84.776, 221.280 86, 214.918 86 L 212 86 212 67.455 C 212 49.098, 211.975 48.884, 209.545 46.455 L 207.091 44 167.545 44 L 128 44 128 40.559 C 128 38.666, 127.609 36.876, 127.131 36.581 C 126.654 36.286, 125.980 34.275, 125.634 32.113 C 125.081 28.655, 124.448 27.911, 120.376 25.940 C 108.752 20.313, 79.283 17.234, 68 20.469 M 71.800 23.193 C 61.343 24.519, 50.631 31.751, 45.696 40.817 C 39.705 51.825, 38.749 58.465, 38.260 92.500 C 37.402 152.181, 42.607 167.899, 63.250 167.978 L 69 168 69 108.174 L 69 48.349 71.314 46.174 C 73.556 44.068, 74.372 44, 97.314 44 L 121 44 121 40.700 C 121 38.885, 121.475 36.925, 122.055 36.345 C 123.912 34.488, 122.013 30.234, 118.605 28.617 C 109.654 24.369, 85.030 21.516, 71.800 23.193 M 92.440 64.296 C 92.162 65.019, 92.062 71.211, 92.218 78.055 L 92.500 90.500 139.500 90.500 L 186.500 90.500 186.500 77 L 186.500 63.500 139.722 63.240 C 101.799 63.029, 92.849 63.229, 92.440 64.296 M 112 163 L 112 207 149.500 207 L 187 207 187 163 L 187 119 149.500 119 L 112 119 112 163 M 125 132.843 C 125 138.275, 125.760 139, 131.459 139 C 135.684 139, 137.208 137.098, 136.815 132.320 L 136.500 128.500 130.750 128.200 L 125 127.900 125 132.843 M 145.422 129.342 C 145.117 130.138, 145.009 132.524, 145.183 134.645 C 145.493 138.419, 145.591 138.507, 149.824 138.811 C 155.527 139.221, 157.178 137.748, 156.800 132.586 L 156.500 128.500 151.239 128.197 C 147.361 127.974, 145.832 128.275, 145.422 129.342 M 165.254 129.700 C 164.775 130.690, 164.635 133.075, 164.942 135 C 165.470 138.311, 165.734 138.517, 169.824 138.811 C 175.527 139.221, 177.178 137.748, 176.800 132.586 L 176.500 128.500 171.312 128.200 C 167.118 127.957, 165.957 128.245, 165.254 129.700 M 125.196 152.198 L 125.500 157.500 131 157.500 L 136.500 157.500 136.500 152.500 L 136.500 147.500 130.696 147.198 L 124.892 146.897 125.196 152.198 M 145.422 148.342 C 145.117 149.138, 145.009 151.524, 145.183 153.645 C 145.477 157.222, 145.745 157.523, 148.888 157.824 C 150.752 158.002, 153.364 157.875, 154.692 157.541 C 156.878 156.993, 157.078 156.488, 156.803 152.218 L 156.500 147.500 151.239 147.197 C 147.361 146.974, 145.832 147.275, 145.422 148.342 M 165.408 148.150 C 164.467 149.672, 164.403 154.001, 165.287 156.305 C 165.760 157.537, 167.107 157.996, 170.219 157.985 C 176.237 157.963, 177.186 157.088, 176.815 151.901 L 176.500 147.500 171.339 147.201 C 168.007 147.008, 165.906 147.344, 165.408 148.150 M 125.712 166.622 C 125.320 167.013, 125 169.531, 125 172.217 L 125 177.100 130.750 176.800 L 136.500 176.500 136.500 171.500 L 136.500 166.500 131.462 166.205 C 128.690 166.043, 126.103 166.230, 125.712 166.622 M 145.196 171.198 L 145.500 176.500 151 176.500 L 156.500 176.500 156.500 171.500 L 156.500 166.500 150.696 166.198 L 144.892 165.897 145.196 171.198 M 164.928 166.700 C 164.447 172.017, 164.709 175.346, 165.672 176.144 C 166.317 176.679, 169.017 176.977, 171.672 176.808 L 176.500 176.500 176.500 171.500 L 176.500 166.500 170.750 166.200 C 167.588 166.035, 164.967 166.260, 164.928 166.700 M 126.250 185.662 C 125.485 185.971, 125 188.096, 125 191.133 L 125 196.100 130.750 195.800 L 136.500 195.500 136.815 191.099 C 137.018 188.255, 136.665 186.403, 135.815 185.864 C 134.399 184.967, 128.294 184.837, 126.250 185.662 M 146.185 185.864 C 145.335 186.403, 144.982 188.255, 145.185 191.099 L 145.500 195.500 151 195.500 L 156.500 195.500 156.815 191.680 C 156.988 189.579, 156.595 187.217, 155.942 186.430 C 154.656 184.881, 148.316 184.513, 146.185 185.864 M 166.123 185.903 C 164.940 186.652, 164.520 189.712, 164.902 194.800 C 164.973 195.742, 166.581 196.017, 170.750 195.800 L 176.500 195.500 176.815 191.680 C 176.988 189.579, 176.595 187.217, 175.942 186.430 C 174.639 184.860, 168.306 184.520, 166.123 185.903" stroke="none"  fill-rule="evenodd"/>
</svg>