<?xml version="1.0" encoding="UTF-8"?>
<svg version="1.1" viewBox="0 0 512 512"
    xml:space="preserve" xmlns="http://www.w3.org/2000/svg">
<path class="player_cross" d="m303.88 256.01 149.81-149.8c5.3187-5.3196 5.3187-13.928 0-19.246l-28.63-28.641c-2.5499-2.5482-6.0102-3.9829-9.622-3.9829-3.6126 0-7.0729 1.4347-9.6228 3.9829l-149.81 149.81-149.81-149.81c-2.5499-2.5482-6.0102-3.9829-9.6229-3.9829-3.6117 0-7.0729 1.4347-9.622 3.9829l-28.63 28.641c-5.3196 5.3178-5.3196 13.926 0 19.246l149.81 149.8-149.79 149.78c-5.3169 5.3196-5.3169 13.928 0 19.246l28.632 28.641c2.5482 2.5482 6.0094 3.9829 9.622 3.9829 3.6126 0 7.0729-1.4347 9.6237-3.9829l149.79-149.79 149.79 149.79c2.5499 2.5482 6.0102 3.9829 9.6228 3.9829 3.6135 0 7.0738-1.4347 9.622-3.9829l28.632-28.641c5.317-5.3178 5.317-13.926 0-19.246z" stroke-width=".87536"/>
</svg>