<svg version="1.1" viewBox="0 0 642 117.59" xmlns="http://www.w3.org/2000/svg" xmlns:xlink="http://www.w3.org/1999/xlink">
 <g transform="translate(-191 -325.2)">
    <path transform="matrix(1.25 0 0 1.25 -212.43 416.98)" d="m358.15-50.4h-15.408l14.328 33.696 7.704-17.64zm27.648 0-13.968 32.832-7.56 17.568h14.04l21.6-50.4z" fill="#ceb00f" stroke="#ceb00f" style="font-variant-ligatures:none"/>
    <path transform="matrix(1.25 0 0 1.25 -187.43 416.98)" d="m430.57-35.208c-3.456-2.952-8.352-4.464-14.832-4.464-3.168 0-6.264.432-9.36 1.224s-5.688 1.872-7.848 3.312l4.608 9.288c1.296-1.008 2.952-1.872 4.896-2.448 1.872-.576 3.816-.936 5.688-.936 5.256 0 7.992 2.088 8.28 6.192h-7.776c-5.904 0-10.296 1.08-13.104 3.096-2.88 2.016-4.248 4.896-4.248 8.568 0 2.304.504 4.392 1.656 6.192s2.808 3.24 5.04 4.248c2.16 1.08 4.824 1.584 7.848 1.584 5.688 0 9.504-1.872 11.52-5.688v5.04h12.744v-21.672c0-6.048-1.728-10.584-5.112-13.536zm-11.16 26.064c-1.224.792-2.592 1.152-4.176 1.152s-2.88-.36-3.744-1.08c-.936-.72-1.368-1.656-1.368-2.88 0-2.592 1.944-3.96 5.976-3.96h5.904v3.384c-.576 1.512-1.44 2.664-2.592 3.384z" fill="#d59b26" stroke="#d59b26" style="font-variant-ligatures:none"/>
    <path transform="matrix(1.25 0 0 1.25 -162.43 416.98)" d="m444.39-53.424v53.424h13.68v-53.424z" fill="#dc863c" stroke="#dc863c" style="font-variant-ligatures:none"/>
    <path transform="matrix(1.25 0 0 1.25 -137.43 416.98)" d="m497.76-1.584-3.384-9.576c-1.224.864-2.592 1.224-4.176 1.224-1.296 0-2.304-.36-3.024-1.152s-1.08-1.872-1.08-3.312v-12.96h8.928v-10.224h-8.928v-10.152h-13.68v10.152h-5.688v10.224h5.688v13.104c0 4.968 1.368 8.712 4.104 11.16 2.736 2.52 6.624 3.744 11.736 3.744 1.872 0 3.6-.144 5.256-.576 1.656-.36 3.096-.936 4.248-1.656z" fill="#e37153" stroke="#e37153" style="font-variant-ligatures:none"/>
    <path transform="matrix(1.25 0 0 1.25 -112.43 416.98)" d="m540.11-35.352c-2.952-2.88-6.84-4.32-11.664-4.32-2.304 0-4.464.36-6.48 1.08-2.016.72-3.816 1.8-5.256 3.168v-18h-13.68v53.424h13.68v-18.864c0-3.024.64801-5.328 2.088-6.912 1.44-1.512 3.312-2.304 5.688-2.304 4.248 0 6.408 2.664 6.408 7.992v20.088h13.68v-22.32c0-5.76-1.512-10.152-4.464-13.032z" fill="#ea5b69" stroke="#ea5b69" style="font-variant-ligatures:none"/>
    <path transform="matrix(1.25 0 0 1.25 -87.426 416.98)" d="m571.53-38.304c-2.232.864-4.032 2.232-5.4 3.96v-4.68h-13.032v39.024h13.68v-17.928c0-3.24.79201-5.688 2.448-7.272 1.656-1.584 3.96-2.376 6.912-2.376.792 0 1.8.072 3.096.216v-12.312c-2.88 0-5.472.504-7.704 1.368z" fill="#f14680" stroke="#f14680" style="font-variant-ligatures:none"/>
    <path transform="matrix(1.25 0 0 1.25 -62.426 416.98)" d="m626.06-39.024h-13.68v18.792c0 3.168-.72 5.472-2.088 6.984s-3.096 2.232-5.256 2.232-3.744-.648-4.824-2.016c-1.152-1.296-1.656-3.456-1.656-6.408v-19.584h-13.68v21.816c0 5.976 1.44 10.44 4.464 13.392 3.024 3.024 7.056 4.464 12.096 4.464 2.232 0 4.392-.36 6.408-1.224 2.016-.792 3.744-2.016 5.184-3.6v4.176h13.032z" fill="#f83196" stroke="#f83196" style="font-variant-ligatures:none"/>
    <path transform="matrix(1.25 0 0 1.25 -37.426 416.98)" d="m671.88-35.352c-2.952-2.88-6.84-4.32-11.664-4.32-2.52 0-4.824.432-6.912 1.296-2.16.864-3.96 2.016-5.472 3.6v-4.248h-13.032v39.024h13.68v-18.864c0-3.024.648-5.328 2.088-6.912 1.44-1.512 3.312-2.304 5.688-2.304 4.248 0 6.408 2.664 6.408 7.992v20.088h13.68v-22.32c0-5.76-1.512-10.152-4.464-13.032z" fill="#ff1cad" stroke="#ff1cad" style="font-variant-ligatures:none"/>
 </g>
</svg>
